<svg width="6" height="9" viewBox="0 0 6 9" fill="none" xmlns="http://www.w3.org/2000/svg">
<path d="M0.762713 1.70615C0.644929 1.54895 0.587746 1.35449 0.601662 1.15848C0.615578 0.962475 0.699659 0.77807 0.838468 0.639122C0.977278 0.500174 1.1615 0.416009 1.35731 0.402079C1.55313 0.388149 1.74739 0.44539 1.90443 0.563291L5.16649 3.8286C5.31591 3.98119 5.39961 4.18635 5.39961 4.40002C5.39961 4.6137 5.31591 4.81886 5.16649 4.97145L1.90443 8.23676C1.74739 8.35466 1.55313 8.4119 1.35731 8.39797C1.1615 8.38404 0.977278 8.29988 0.838468 8.16093C0.699658 8.02198 0.615578 7.83757 0.601662 7.64157C0.587746 7.44556 0.644929 7.2511 0.762713 7.0939L3.44575 4.40002L0.754558 1.70615H0.762713Z" fill="#6D6C79" fill-opacity="0.5"/>
</svg>
