<svg width="8" height="8" viewBox="0 0 8 8" fill="none" xmlns="http://www.w3.org/2000/svg">
<path d="M1.30612 7.63688C1.14892 7.75467 0.954471 7.81185 0.758461 7.79793C0.562451 7.78402 0.37805 7.69994 0.2391 7.56113C0.10015 7.42232 0.0159804 7.2381 0.00205047 7.04228C-0.0118795 6.84647 0.0453706 6.65221 0.163271 6.49517L3.42857 3.23311C3.58117 3.08369 3.78632 2.99999 4 2.99999C4.21368 2.99999 4.41883 3.08369 4.57143 3.23311L7.83673 6.49517C7.95464 6.65221 8.01188 6.84647 7.99795 7.04228C7.98402 7.2381 7.89985 7.42232 7.7609 7.56113C7.62196 7.69994 7.43755 7.78402 7.24154 7.79793C7.04553 7.81185 6.85108 7.75467 6.69388 7.63688L4 4.95384L1.30612 7.64504L1.30612 7.63688Z" fill="#3C3C3B"/>
<path d="M6.69388 0.163105C6.85108 0.0453204 7.04553 -0.0118626 7.24154 0.00205342C7.43755 0.0159694 7.62195 0.10005 7.7609 0.23886C7.89985 0.37767 7.98402 0.561892 7.99795 0.757705C8.01188 0.953518 7.95463 1.14778 7.83673 1.30482L4.57143 4.56688C4.41883 4.7163 4.21368 4.8 4 4.8C3.78632 4.8 3.58117 4.7163 3.42857 4.56688L0.163266 1.30482C0.0453641 1.14778 -0.011875 0.953517 0.00205481 0.757704C0.0159847 0.561891 0.100149 0.377669 0.239097 0.238859C0.378045 0.10005 0.562451 0.0159687 0.758459 0.00205275C0.954467 -0.0118633 1.14892 0.0453198 1.30612 0.163104L4 2.84615L6.69388 0.154949V0.163105Z" fill="#3C3C3B"/>
</svg>
