<?xml version="1.0" encoding="UTF-8" standalone="no"?>
<!DOCTYPE svg PUBLIC "-//W3C//DTD SVG 1.1//EN" "http://www.w3.org/Graphics/SVG/1.1/DTD/svg11.dtd">
<svg width="100%" height="100%" viewBox="0 0 314 314" version="1.1" xmlns="http://www.w3.org/2000/svg" xmlns:xlink="http://www.w3.org/1999/xlink" xml:space="preserve" xmlns:serif="http://www.serif.com/" style="fill-rule:evenodd;clip-rule:evenodd;stroke-linejoin:round;stroke-miterlimit:1.41421;">
    <path d="M157,314C243.57,314 314,243.57 314,157C314,70.43 243.57,0 157,0C70.43,0 0,70.43 0,157C0,243.57 70.43,314 157,314ZM157,14C235.852,14 300,78.148 300,157C300,235.852 235.852,300 157,300C78.148,300 14,235.852 14,157C14,78.148 78.148,14 157,14Z" style="fill:rgb(140,140,140);fill-rule:nonzero;"/>
    <path d="M118.301,142.891C134.313,142.891 147.289,129.91 147.289,113.902C147.293,97.891 134.313,84.91 118.301,84.91C102.289,84.91 89.313,97.891 89.313,113.898C89.328,129.902 102.297,142.871 118.301,142.891ZM118.301,98.91C126.578,98.91 133.289,105.621 133.289,113.898C133.293,122.18 126.582,128.891 118.301,128.891C110.023,128.891 103.313,122.18 103.313,113.898C103.32,105.625 110.027,98.922 118.301,98.91Z" style="fill:rgb(140,140,140);fill-rule:nonzero;"/>
    <path d="M164.953,201.859C164.953,217.871 177.934,230.848 193.941,230.848C209.953,230.848 222.934,217.871 222.934,201.859C222.934,185.848 209.953,172.867 193.941,172.867C177.938,172.887 164.973,185.855 164.953,201.859ZM208.934,201.859C208.934,210.137 202.223,216.848 193.941,216.848C185.664,216.848 178.953,210.137 178.953,201.859C178.953,193.582 185.664,186.871 193.941,186.867C202.219,186.879 208.922,193.582 208.934,201.859Z" style="fill:rgb(140,140,140);fill-rule:nonzero;"/>
    <path d="M103.699,238.727C106.938,240.84 111.277,239.926 113.387,236.688L212.34,84.961C213.711,82.863 213.859,80.195 212.73,77.961C211.598,75.727 209.359,74.266 206.859,74.133C204.359,74 201.977,75.211 200.613,77.313L101.66,229.039C99.547,232.281 100.461,236.617 103.699,238.727Z" style="fill:rgb(140,140,140);fill-rule:nonzero;"/>
</svg>
