<svg width="84" height="76" viewBox="0 0 84 76" fill="none" xmlns="http://www.w3.org/2000/svg">
<path d="M57.0775 0.691879L4.59889 22.2262C0.981143 23.7107 -0.735917 27.9033 0.770435 31.5743L17.1587 71.512C18.665 75.1829 22.8321 76.961 26.4499 75.4765L78.9285 53.9422C82.5462 52.4577 84.2633 48.2651 82.7569 44.5941L66.3687 4.65638C64.8623 0.985439 60.6952 -0.792642 57.0775 0.691879ZM59.8088 7.34817L60.5067 9.04885L42.7661 40.5271L8.02949 30.5865L7.33026 28.8825L59.8088 7.34817ZM23.7185 68.8202L11.4874 39.0133L43.5587 48.1928C44.3416 48.4198 45.149 48.3607 45.8607 48.0686C46.5725 47.7766 47.1886 47.2515 47.5864 46.54L63.966 17.479L76.2036 47.2832L23.7185 68.8202Z" fill="#DEE6E4"/>
</svg>
