<?xml version="1.0" encoding="UTF-8" standalone="no"?>
<!DOCTYPE svg PUBLIC "-//W3C//DTD SVG 1.1//EN" "http://www.w3.org/Graphics/SVG/1.1/DTD/svg11.dtd">
<svg width="100%" height="100%" viewBox="0 0 18 18" version="1.1" xmlns="http://www.w3.org/2000/svg" xmlns:xlink="http://www.w3.org/1999/xlink" xml:space="preserve" xmlns:serif="http://www.serif.com/" style="fill-rule:evenodd;clip-rule:evenodd;stroke-linejoin:round;stroke-miterlimit:1.41421;">
    <path d="M16.313,2.813L1.688,2.813C1.687,2.813 1.687,2.813 1.686,2.813C1.379,2.813 1.126,3.066 1.126,3.373C1.126,3.374 1.126,3.375 1.126,3.376L1.126,14.626C1.126,14.627 1.126,14.628 1.126,14.629C1.126,14.936 1.379,15.189 1.686,15.189C1.687,15.189 1.688,15.189 1.689,15.189L16.314,15.189C16.315,15.189 16.316,15.189 16.317,15.189C16.624,15.189 16.877,14.936 16.877,14.629C16.877,14.628 16.877,14.628 16.877,14.627L16.877,3.375C16.877,3.374 16.877,3.374 16.877,3.373C16.877,3.066 16.624,2.813 16.317,2.813C16.316,2.813 16.316,2.813 16.315,2.813L16.313,2.813ZM15.61,4.76L15.61,13.922L2.39,13.922L2.39,4.76L1.905,4.382L2.595,3.494L3.347,4.079L14.651,4.079L15.403,3.494L16.093,4.382L15.606,4.76L15.61,4.76ZM14.654,4.078L9,8.473L2.595,3.493L1.905,4.381L2.39,4.759L8.395,9.429C8.568,9.563 8.78,9.636 8.999,9.636C9.218,9.636 9.429,9.563 9.603,9.429L15.61,4.76L16.095,4.382L15.405,3.494L14.655,4.078L14.654,4.078Z" style="fill:rgb(55,59,47);fill-rule:nonzero;"/>
</svg>
