<svg width="24" height="24" viewBox="0 0 24 24" fill="none" xmlns="http://www.w3.org/2000/svg">
<path d="M12.0001 7.19274C9.33995 7.19274 7.19308 9.33961 7.19308 11.9998C7.19308 14.6599 9.33995 16.8068 12.0001 16.8068C14.6603 16.8068 16.8071 14.6599 16.8071 11.9998C16.8071 9.33961 14.6603 7.19274 12.0001 7.19274ZM12.0001 15.124C10.2798 15.124 8.87589 13.7201 8.87589 11.9998C8.87589 10.2795 10.2798 8.87555 12.0001 8.87555C13.7204 8.87555 15.1243 10.2795 15.1243 11.9998C15.1243 13.7201 13.7204 15.124 12.0001 15.124ZM17.004 5.87555C16.3829 5.87555 15.8814 6.37711 15.8814 6.99821C15.8814 7.6193 16.3829 8.12086 17.004 8.12086C17.6251 8.12086 18.1267 7.62164 18.1267 6.99821C18.1269 6.85073 18.0979 6.70466 18.0416 6.56837C17.9852 6.43208 17.9026 6.30824 17.7983 6.20396C17.694 6.09967 17.5701 6.01698 17.4339 5.96063C17.2976 5.90428 17.1515 5.87537 17.004 5.87555ZM21.3704 11.9998C21.3704 10.706 21.3821 9.42399 21.3095 8.13258C21.2368 6.63258 20.8946 5.30133 19.7978 4.20446C18.6985 3.10524 17.3696 2.76539 15.8696 2.69274C14.5759 2.62008 13.2939 2.6318 12.0025 2.6318C10.7087 2.6318 9.42667 2.62008 8.13527 2.69274C6.63527 2.76539 5.30402 3.10758 4.20714 4.20446C3.10792 5.30368 2.76808 6.63258 2.69542 8.13258C2.62277 9.42633 2.63449 10.7084 2.63449 11.9998C2.63449 13.2912 2.62277 14.5756 2.69542 15.867C2.76808 17.367 3.11027 18.6982 4.20714 19.7951C5.30636 20.8943 6.63527 21.2341 8.13527 21.3068C9.42902 21.3795 10.711 21.3677 12.0025 21.3677C13.2962 21.3677 14.5782 21.3795 15.8696 21.3068C17.3696 21.2341 18.7009 20.892 19.7978 19.7951C20.897 18.6959 21.2368 17.367 21.3095 15.867C21.3845 14.5756 21.3704 13.2935 21.3704 11.9998ZM19.3079 17.5263C19.1368 17.9529 18.9306 18.2716 18.6001 18.5998C18.2696 18.9302 17.9532 19.1365 17.5267 19.3076C16.2939 19.7974 13.3665 19.6873 12.0001 19.6873C10.6337 19.6873 7.70402 19.7974 6.47121 19.3099C6.04464 19.1388 5.72589 18.9326 5.39777 18.6021C5.0673 18.2716 4.86105 17.9552 4.68996 17.5287C4.20246 16.2935 4.31261 13.3662 4.31261 11.9998C4.31261 10.6334 4.20246 7.70368 4.68996 6.47086C4.86105 6.0443 5.0673 5.72555 5.39777 5.39743C5.72824 5.0693 6.04464 4.86071 6.47121 4.68961C7.70402 4.20211 10.6337 4.31227 12.0001 4.31227C13.3665 4.31227 16.2962 4.20211 17.529 4.68961C17.9556 4.86071 18.2743 5.06696 18.6025 5.39743C18.9329 5.72789 19.1392 6.0443 19.3103 6.47086C19.7978 7.70368 19.6876 10.6334 19.6876 11.9998C19.6876 13.3662 19.7978 16.2935 19.3079 17.5263Z" fill="black"/>
</svg>
