<svg width="34" height="23" viewBox="0 0 34 23" fill="none" xmlns="http://www.w3.org/2000/svg">
<path d="M24.1138 0.689017C24.0594 0.45811 23.9154 0.258359 23.7136 0.133589C23.5118 0.00889296 23.2687 -0.0305356 23.0379 0.0238743L0.689015 5.29664C0.458108 5.35105 0.258431 5.49505 0.133661 5.69682C0.00889106 5.89858 -0.0305375 6.14171 0.0238724 6.37254L3.66412 21.8019C3.76131 22.2136 4.12854 22.4912 4.53393 22.4912C4.60191 22.4912 4.671 22.4833 4.7401 22.4671L27.0889 17.1945C27.3198 17.14 27.5194 16.996 27.6442 16.7943C27.769 16.5925 27.8084 16.3494 27.754 16.1186L24.1138 0.689017ZM24.225 8.95098L20.3965 6.72718L22.8427 3.09185L24.225 8.95098ZM2.23493 7.95371L6.04817 10.1124L3.61731 13.8128L2.23493 7.95371ZM3.32179 6.51341L21.2266 2.28919L14.2292 12.688L3.32179 6.51341ZM5.19982 20.5206L4.1828 16.2102L7.60832 10.9955L14.0685 14.6525C14.2073 14.7312 14.3588 14.7687 14.5084 14.7687C14.7972 14.7687 15.0793 14.6288 15.2511 14.3736L19.3955 8.21451L24.7905 11.3482L25.8075 15.6587L5.19982 20.5206Z" fill="#78AA66"/>
<path d="M32.2911 0.600403H26.6718C26.1777 0.600403 25.7773 1.00087 25.7773 1.49481C25.7773 1.98875 26.1777 2.38922 26.6718 2.38922H32.2911C32.7851 2.38922 33.1855 1.98875 33.1855 1.49481C33.1855 1.00087 32.7851 0.600403 32.2911 0.600403Z" fill="#78AA66"/>
<path d="M31.3476 5.38922H27.6171C27.1231 5.38922 26.7227 5.78969 26.7227 6.28363C26.7227 6.77757 27.1231 7.17804 27.6171 7.17804H31.3476C31.8416 7.17804 32.242 6.77757 32.242 6.28363C32.242 5.78969 31.8416 5.38922 31.3476 5.38922Z" fill="#78AA66"/>
<path d="M30.4513 10.178H28.5116C28.0176 10.178 27.6172 10.5785 27.6172 11.0724C27.6172 11.5664 28.0176 11.9669 28.5116 11.9669H30.4513C30.9454 11.9669 31.3458 11.5664 31.3458 11.0724C31.3458 10.5785 30.9454 10.178 30.4513 10.178Z" fill="#78AA66"/>
</svg>
