<svg width="20" height="20" viewBox="0 0 20 20" fill="none" xmlns="http://www.w3.org/2000/svg">
<circle cx="10" cy="10" r="10" fill="#F0BA00" fill-opacity="0.15"/>
<path d="M9.35997 4.48506C9.56174 3.83831 10.4381 3.83831 10.6392 4.48506L11.3588 6.79678C11.4028 6.93757 11.4883 7.06024 11.603 7.14726C11.7178 7.23429 11.8559 7.28121 11.9978 7.28132H14.3262C14.9779 7.28132 15.2483 8.15207 14.7217 8.55234L12.8385 9.98066C12.7235 10.0678 12.6379 10.1906 12.5939 10.3317C12.5499 10.4727 12.5498 10.6247 12.5937 10.7657L13.3133 13.0775C13.5151 13.7242 12.8055 14.2628 12.2776 13.8626L10.3944 12.4342C10.2795 12.3472 10.1412 12.3003 9.99924 12.3003C9.85729 12.3003 9.71898 12.3472 9.60411 12.4342L7.72092 13.8626C7.19363 14.2628 6.48474 13.7242 6.68584 13.0775L7.40548 10.7657C7.44932 10.6247 7.44924 10.4727 7.40526 10.3317C7.36128 10.1906 7.27566 10.0678 7.16067 9.98066L5.27815 8.55304C4.75153 8.15277 5.02258 7.28202 5.67362 7.28202H8.00138C8.14332 7.28206 8.28164 7.23521 8.39653 7.14817C8.51142 7.06114 8.59699 6.93838 8.64099 6.79748L9.36064 4.48576L9.35997 4.48506Z" fill="#F0BA00"/>
</svg>
