<svg width="20" height="20" viewBox="0 0 20 20" fill="none" xmlns="http://www.w3.org/2000/svg">
<circle cx="10" cy="10" r="10" fill="#F6E2DC"/>
<path d="M6.52552 14L12.5455 5.082H13.9105L7.89052 14H6.52552ZM12.7555 14.147C12.4335 14.147 12.1325 14.07 11.8525 13.916C11.5772 13.762 11.3532 13.5333 11.1805 13.23C11.0078 12.922 10.9215 12.5393 10.9215 12.082C10.9215 11.6247 11.0078 11.2443 11.1805 10.941C11.3532 10.6377 11.5772 10.409 11.8525 10.255C12.1325 10.101 12.4335 10.024 12.7555 10.024C13.0868 10.024 13.3925 10.101 13.6725 10.255C13.9572 10.409 14.1835 10.6377 14.3515 10.941C14.5242 11.2443 14.6105 11.6247 14.6105 12.082C14.6105 12.5393 14.5242 12.922 14.3515 13.23C14.1835 13.5333 13.9572 13.762 13.6725 13.916C13.3925 14.07 13.0868 14.147 12.7555 14.147ZM12.7555 13.258C12.9982 13.258 13.1942 13.167 13.3435 12.985C13.4975 12.803 13.5745 12.502 13.5745 12.082C13.5745 11.6713 13.4975 11.3727 13.3435 11.186C13.1942 10.9947 12.9982 10.899 12.7555 10.899C12.5128 10.899 12.3168 10.9947 12.1675 11.186C12.0182 11.3727 11.9435 11.6713 11.9435 12.082C11.9435 12.502 12.0182 12.803 12.1675 12.985C12.3168 13.167 12.5128 13.258 12.7555 13.258ZM7.68752 9.023C7.36552 9.023 7.06452 8.946 6.78452 8.792C6.50918 8.638 6.28518 8.40933 6.11252 8.106C5.93985 7.798 5.85352 7.41766 5.85352 6.965C5.85352 6.51233 5.93985 6.13433 6.11252 5.831C6.28518 5.52766 6.50918 5.30133 6.78452 5.152C7.06452 4.998 7.36552 4.921 7.68752 4.921C8.01418 4.921 8.31985 4.998 8.60452 5.152C8.88918 5.30133 9.11552 5.52766 9.28352 5.831C9.45618 6.13433 9.54252 6.51233 9.54252 6.965C9.54252 7.41766 9.45618 7.798 9.28352 8.106C9.11552 8.40933 8.88918 8.638 8.60452 8.792C8.31985 8.946 8.01418 9.023 7.68752 9.023ZM7.68752 8.148C7.92552 8.148 8.11918 8.05466 8.26852 7.868C8.42252 7.68133 8.49952 7.38033 8.49952 6.965C8.49952 6.55433 8.42252 6.25566 8.26852 6.069C8.11918 5.87766 7.92552 5.782 7.68752 5.782C7.44485 5.782 7.24885 5.87766 7.09952 6.069C6.95018 6.25566 6.87552 6.55433 6.87552 6.965C6.87552 7.38033 6.95018 7.68133 7.09952 7.868C7.24885 8.05466 7.44485 8.148 7.68752 8.148Z" fill="#7C2D12"/>
</svg>
