<?xml version="1.0" encoding="UTF-8" standalone="no"?>
<!DOCTYPE svg PUBLIC "-//W3C//DTD SVG 1.1//EN" "http://www.w3.org/Graphics/SVG/1.1/DTD/svg11.dtd">
<svg width="100%" height="100%" viewBox="0 0 20 20" version="1.1" xmlns="http://www.w3.org/2000/svg" xmlns:xlink="http://www.w3.org/1999/xlink" xml:space="preserve" xmlns:serif="http://www.serif.com/" style="fill-rule:evenodd;clip-rule:evenodd;stroke-linejoin:round;stroke-miterlimit:1.41421;">
    <path d="M17.13,4.662L15.05,2.584C14.796,2.33 14.456,2.188 14.097,2.188C13.738,2.188 13.397,2.328 13.144,2.584L10.904,4.82C10.651,5.073 10.508,5.417 10.508,5.775C10.507,6.133 10.65,6.478 10.904,6.73L12.654,8.482C12.255,9.411 11.683,10.255 10.967,10.968C10.25,11.688 9.412,12.258 8.483,12.658L6.733,10.906C6.479,10.652 6.139,10.509 5.78,10.509C5.603,10.508 5.427,10.543 5.263,10.611C5.099,10.679 4.951,10.779 4.826,10.905L2.584,13.141C2.331,13.394 2.188,13.738 2.188,14.096C2.187,14.454 2.33,14.799 2.584,15.051L4.662,17.129C5.099,17.564 5.69,17.809 6.307,17.811C6.433,17.811 6.558,17.801 6.682,17.78C9.268,17.354 11.834,15.977 13.907,13.907C15.98,11.837 17.352,9.267 17.782,6.677C17.902,5.939 17.66,5.186 17.132,4.657L17.13,4.662ZM16.396,6.449C16.016,8.752 14.776,11.049 12.912,12.914C11.048,14.779 8.752,16.018 6.449,16.398C6.158,16.445 5.861,16.349 5.652,16.14L3.61,14.1L5.774,11.934L8.131,14.294L8.553,14.138C11.14,13.187 13.183,11.144 14.133,8.556L14.289,8.134L11.929,5.777L14.093,3.611L16.133,5.651C16.343,5.861 16.443,6.159 16.393,6.448L16.396,6.449Z" style="fill:rgb(55,59,47);fill-rule:nonzero;"/>
</svg>
