<svg width="54" height="20" viewBox="0 0 54 20" fill="none" xmlns="http://www.w3.org/2000/svg">
<path d="M27.6185 8.26326C27.9555 8.38208 28.2531 8.59575 28.5799 8.7405L48.38 17.5107C51.0247 18.6821 54 16.7459 54 13.8534V4C54 1.79086 52.2091 0 50 0H4C1.79086 0 0 1.79086 0 4V13.8534C0 16.7459 2.97531 18.6821 5.61995 17.5107L25.4182 8.74133C25.7462 8.59604 26.0449 8.38131 26.3834 8.26252C26.5754 8.19515 26.7854 8.15919 27 8.15919C27.2154 8.15919 27.426 8.19542 27.6185 8.26326Z" fill="#CF4823"/>
<path d="M0 0H54V4H0V0Z" fill="#CF4823"/>
</svg>
