<svg xmlns="http://www.w3.org/2000/svg" width="20" height="20" fill="none"><path d="M19.32 18.027l-6.087-6.087c.945-1.22 1.456-2.714 1.456-4.284a6.99 6.99 0 0 0-2.06-4.971A6.98 6.98 0 0 0 7.656.625a6.99 6.99 0 0 0-4.971 2.06c-1.33 1.327-2.06 3.09-2.06 4.97a6.99 6.99 0 0 0 2.06 4.971c1.327 1.33 3.09 2.06 4.97 2.06 1.57 0 3.06-.51 4.282-1.453l6.087 6.084a.19.19 0 0 0 .062.042c.023.01.048.015.074.015s.05-.005.074-.015.044-.024.062-.042l1.022-1.02a.19.19 0 0 0 .042-.062c.01-.023.015-.048.015-.074s-.005-.05-.015-.074-.024-.044-.042-.062h0zm-7.95-6.658a5.22 5.22 0 0 1-3.713 1.537 5.22 5.22 0 0 1-3.712-1.537 5.22 5.22 0 0 1-1.537-3.713c0-1.402.546-2.72 1.538-3.712a5.22 5.22 0 0 1 3.713-1.537c1.402 0 2.72.544 3.713 1.538a5.22 5.22 0 0 1 1.537 3.713c0 1.402-.546 2.72-1.537 3.713z" fill="#000"/></svg>