<svg xmlns="http://www.w3.org/2000/svg" width="18" height="20" fill="none"><path d="M17.122 15.897c-.442-1.047-1.084-1.998-1.89-2.8s-1.754-1.446-2.8-1.89c-.01-.005-.02-.007-.028-.012a5.8 5.8 0 0 0 2.409-4.711C14.813 3.273 12.21.672 9 .672S3.188 3.273 3.188 6.484c0 1.938.95 3.656 2.41 4.713-.01.005-.02.007-.028.012-1.05.443-1.992 1.078-2.8 1.89-.805.803-1.446 1.754-1.89 2.8a8.71 8.71 0 0 0-.691 3.237c-.001.025.004.05.013.073s.023.045.04.063.038.032.06.042.048.015.073.015h1.406c.103 0 .185-.082.188-.183.047-1.81.773-3.504 2.058-4.788 1.33-1.33 3.094-2.06 4.973-2.06s3.645.73 4.973 2.06c1.284 1.284 2.01 2.98 2.058 4.788.002.103.084.183.188.183h1.406c.025 0 .05-.005.073-.015s.044-.024.06-.042.03-.04.04-.062.014-.048.013-.073a8.73 8.73 0 0 0-.691-3.239zM9 10.516c-1.076 0-2.088-.42-2.85-1.18S4.97 7.56 4.97 6.484s.42-2.088 1.18-2.85S7.925 2.453 9 2.453s2.088.42 2.85 1.18 1.18 1.774 1.18 2.85-.42 2.088-1.18 2.85-1.774 1.18-2.85 1.18z" fill="#000"/></svg>