<svg clip-rule="evenodd" fill-rule="evenodd" stroke-linejoin="round" stroke-miterlimit="1.41421" viewBox="0 0 2513 491" xmlns="http://www.w3.org/2000/svg" xmlns:xlink="http://www.w3.org/1999/xlink"><clipPath id="a"><path clip-rule="evenodd" d="m0 0h2512.54v490.146h-2512.54z"/></clipPath><path d="m0 0h2512.54v490.146h-2512.54z" fill="none"/><g clip-path="url(#a)"><g fill="#3c3c3b"><path d="m0 310.732v-152.533h89.618c14.777 0 28.102 1.735 39.975 5.195 11.869 3.464 21.932 8.423 30.187 14.876 8.254 6.456 14.621 14.248 19.102 23.375 4.481 9.131 6.722 19.443 6.722 30.932 0 25.501-8.295 44.903-24.881 58.203-16.59 13.304-40.369 19.952-71.341 19.952zm76.883-310.968c31.915 0 55.617 6.376 71.105 19.126 15.484 12.75 23.23 31.012 23.23 54.78 0 8.658-1.692 17.435-5.071 26.327-3.382 8.895-8.807 16.923-16.272 24.084-7.47 7.164-17.062 12.986-28.772 17.472-11.715 4.487-25.906 6.73-42.569 6.73h-78.534v-148.519zm-89.854-10.389v331.982h102.353c17.294 0 32.701-1.967 46.224-5.903 13.52-3.933 24.958-9.681 34.315-17.237 9.352-7.555 16.468-16.8 21.343-27.744 4.871-10.938 7.311-23.493 7.311-37.66 0-11.489-1.968-21.919-5.896-31.286-3.932-9.363-9.633-17.473-17.098-24.32-7.47-6.848-16.549-12.433-27.239-16.765-10.694-4.327-22.799-7.201-36.319-8.618 10.848-2.044 20.713-5.585 29.597-10.625 8.881-5.036 16.428-11.097 22.641-18.181 6.209-7.083 11.043-14.912 14.504-23.494 3.456-8.578 5.188-17.509 5.188-26.799 0-26.6-8.807-47.142-26.414-61.627-17.61-14.481-44.496-21.723-80.656-21.723zm333.472 320.884v-151.823h154.002v-10.862h-154.002v-147.101h182.774v-11.098h-195.745v331.982h195.745l.472-11.098zm524.972-320.884v301.523c0 1.262.037 2.597.118 4.014.077 1.417.195 2.834.353 4.25l-226.639-306.717c-.944-1.258-1.809-2.085-2.595-2.48-.788-.391-1.809-.59-3.065-.59h-5.896v331.982h11.32v-302.231c0-1.258-.041-2.634-.118-4.132-.081-1.494-.199-2.951-.354-4.368l227.583 307.898c1.415 1.889 3.143 2.833 5.188 2.833h5.425v-331.982zm155.417 320.648v-320.648h-12.975v331.982h177.355v-11.334z" fill-rule="nonzero" transform="translate(561.489 168.789)"/><path d="m0 309.786v-151.824h154.002v-10.861h-154.002v-147.102h182.774v-11.097h-195.745v331.982h195.745l.471-11.098z" fill-rule="nonzero" transform="translate(1825.33 169.262)"/><path d="m0-333.252h-12.291l-123.409 195.915-123.409-195.915h-12.784v333.252h11.309v-314.546l120.459 191.484h8.358l120.458-191.484h.493l-.493 136.353v178.193h11.309z" fill-rule="nonzero" transform="translate(2369.47 490.146)"/><path d="m2686.18 275.187h11.8v333.252h-11.8z" transform="translate(-185.444 -118.293)"/></g><path d="m0 .254-86.59 86.336v-172.926z" fill="#7bb82a" fill-rule="nonzero" transform="translate(293.588 93.3344)"/><path d="m0 44.625c62.556 47.682 125.112 95.364 187.667 143.045 0-110.238.001-220.477.001-330.715-62.556 62.557-125.112 125.113-187.668 187.67" fill="#7bb82a" fill-rule="nonzero" transform="translate(5.3311 150.043)"/><path d="m0-280.678v280.678h192.999v-133.573c-64.333-49.035-128.666-98.07-192.999-147.105" fill="#7bb82a" fill-rule="nonzero" transform="translate(0 488.889)"/><path d="m0-385.4c-32.164 32.071-64.327 64.143-96.49 96.215v289.185h193.001v-289.185c-32.17-32.072-64.341-64.144-96.511-96.215" fill="#a0cd54" fill-rule="nonzero" transform="translate(303.489 488.889)"/></g></svg>