<svg fill="none" height="56" viewBox="0 0 65 56" width="65" xmlns="http://www.w3.org/2000/svg"><g fill="#8c8c8c"><path d="m63.5385 32.3077h-1.077v-3.2308c-.0028-2.1385-1.2707-4.0726-3.2307-4.928v-16.61044c-.0003-.42808-.2539-.81523-.6462-.98646.4202-.67335.6439-1.45062.6462-2.24431 0-2.37906-1.9287-4.30769-4.3077-4.30769-2.3791 0-4.3077 1.92863-4.3077 4.30769.0044.75843.2112 1.50191.5988 2.15385h-37.813c.3876-.65194.5944-1.39542.5988-2.15385 0-2.37906-1.9286-4.30769-4.30769-4.30769-2.37906 0-4.30769 1.92863-4.30769 4.30769.00228.79369.22601 1.57096.64615 2.24431-.39227.17123-.64589.55838-.64615.98646v16.61044c-1.96.8554-3.22795 2.7895-3.23077 4.928v3.2308h-1.07693c-.594728 0-1.07692.4822-1.07692 1.0769v15.0769c0 .5948.482192 1.077 1.07692 1.077h1.07693v5.3846c0 .5947.48219 1.0769 1.07692 1.0769h4.30769c.59473 0 1.07693-.4822 1.07693-1.0769v-5.3846h47.38461v5.3846c0 .5947.4822 1.0769 1.0769 1.0769h4.3077c.5948 0 1.0769-.4822 1.0769-1.0769v-5.3846h1.077c.5947 0 1.0769-.4822 1.0769-1.077v-15.0769c0-.5947-.4822-1.0769-1.0769-1.0769zm-8.6154-30.15385c1.1896 0 2.1538.96425 2.1538 2.15384 0 1.1896-.9642 2.15385-2.1538 2.15385s-2.1539-.96425-2.1539-2.15385c0-1.18959.9643-2.15384 2.1539-2.15384zm-45.23079 0c1.18959 0 2.15389.96425 2.15389 2.15384 0 1.1896-.9643 2.15385-2.15389 2.15385-1.1896 0-2.15385-.96425-2.15385-2.15385 0-1.18959.96425-2.15384 2.15385-2.15384zm-2.15385 6.46154h49.53844v15.07691h-4.3357c.7127-.9265 1.1011-2.0618 1.105-3.2308v-2.1538c-.0035-2.9723-2.4124-5.3811-5.3847-5.3846h-8.6153c-2.9724.0035-5.3812 2.4123-5.3847 5.3846v2.1538c.0039 1.169.3923 2.3043 1.105 3.2308h-6.5176c.7127-.9265 1.101-2.0618 1.1049-3.2308v-2.1538c-.0035-2.9723-2.4123-5.3811-5.3846-5.3846h-8.6154c-2.9723.0035-5.3811 2.4123-5.3846 5.3846v2.1538c.0039 1.169.3923 2.3043 1.105 3.2308h-4.33574zm44.15384 9.69231v2.1538c0 1.7844-1.4464 3.2308-3.2308 3.2308h-8.6153c-1.7844 0-3.2308-1.4464-3.2308-3.2308v-2.1538c0-1.7843 1.4464-3.2308 3.2308-3.2308h8.6153c1.7844 0 3.2308 1.4465 3.2308 3.2308zm-23.6923 0v2.1538c0 1.7844-1.4464 3.2308-3.2308 3.2308h-8.6154c-1.7843 0-3.2307-1.4464-3.2307-3.2308v-2.1538c0-1.7843 1.4464-3.2308 3.2307-3.2308h8.6154c1.7844 0 3.2308 1.4465 3.2308 3.2308zm-23.69231 10.7692c0-1.7843 1.44645-3.2307 3.23077-3.2307h49.53844c1.7844 0 3.2308 1.4464 3.2308 3.2307v3.2308h-56.00001zm2.15385 24.7693h-2.15385v-4.3077h2.15385zm53.84616 0h-2.1538v-4.3077h2.1538zm2.1538-6.4616h-60.30765v-12.9231h60.30765z"/><path d="m9.69211 43.0771h-4.30769c-.59473 0-1.07692.4822-1.07692 1.077 0 .5947.48219 1.0769 1.07692 1.0769h4.30769c.59469 0 1.07689-.4822 1.07689-1.0769 0-.5948-.4822-1.077-1.07689-1.077z"/><path d="m59.2306 43.0771h-45.2308c-.5947 0-1.0769.4822-1.0769 1.077 0 .5947.4822 1.0769 1.0769 1.0769h45.2308c.5947 0 1.0769-.4822 1.0769-1.0769 0-.5948-.4822-1.077-1.0769-1.077z"/></g></svg>