<?xml version="1.0" encoding="UTF-8" standalone="no"?>
<!DOCTYPE svg PUBLIC "-//W3C//DTD SVG 1.1//EN" "http://www.w3.org/Graphics/SVG/1.1/DTD/svg11.dtd">
<svg width="100%" height="100%" viewBox="0 0 56 14" version="1.1" xmlns="http://www.w3.org/2000/svg" xmlns:xlink="http://www.w3.org/1999/xlink" xml:space="preserve" xmlns:serif="http://www.serif.com/" style="fill-rule:evenodd;clip-rule:evenodd;stroke-miterlimit:10;">
    <g id="Artboard1" transform="matrix(0.987775,0,0,1,0,0)">
        <rect x="0" y="0" width="56.216" height="13.393" style="fill:none;"/>
        <clipPath id="_clip1">
            <rect x="0" y="0" width="56.216" height="13.393"/>
        </clipPath>
        <g clip-path="url(#_clip1)">
            <g id="Layer-1" serif:id="Layer 1" transform="matrix(1.01238,0,0,1,0,0)">
                <g transform="matrix(1,0,0,1,55.8451,7.4104)">
                    <path d="M0,-6.769C-2.986,-4.366 -12.077,0 -27.408,0C-41.485,0 -51.945,-3.431 -56.186,-6.769" style="fill:none;fill-rule:nonzero;stroke:rgb(238,238,238);stroke-width:1px;"/>
                </g>
                <g transform="matrix(0,1,1,0,27.9924,8.3657)">
                    <path d="M1.2,-1.2C0.247,-1.2 -0.525,-0.662 -0.525,0C-0.525,0.663 0.247,1.2 1.2,1.2C2.153,1.2 2.925,0.663 2.925,0C2.925,-0.662 2.153,-1.2 1.2,-1.2" style="fill:rgb(255,230,0);fill-rule:nonzero;"/>
                </g>
                <g opacity="0.12">
                    <g transform="matrix(0,1,1,0,27.992,8.267)">
                        <path d="M2.161,-2.16C0.613,-2.16 -0.642,-1.193 -0.642,0.001C-0.642,1.194 0.613,2.161 2.161,2.161C3.709,2.161 4.964,1.194 4.964,0.001C4.964,-1.193 3.709,-2.16 2.161,-2.16" style="fill:rgb(255,230,0);fill-rule:nonzero;"/>
                    </g>
                </g>
                <g transform="matrix(0.238983,0.971024,0.971024,-0.238983,45.4467,6.35388)">
                    <path d="M1.158,-0.907C0.199,-0.959 -0.578,-0.469 -0.579,0.19C-0.578,0.848 0.199,1.425 1.158,1.478C2.117,1.53 2.894,1.04 2.895,0.381C2.894,-0.277 2.117,-0.854 1.158,-0.907" style="fill:rgb(227,100,2);fill-rule:nonzero;"/>
                </g>
                <g opacity="0.11">
                    <g transform="matrix(0.23917,0.970978,0.970978,-0.23917,45.3586,6.6195)">
                        <path d="M2.004,-1.57C0.452,-1.655 -0.807,-0.8 -0.806,0.339C-0.806,1.479 0.453,2.472 2.004,2.557C3.556,2.642 4.814,1.788 4.814,0.649C4.813,-0.491 3.555,-1.484 2.004,-1.57" style="fill:rgb(255,155,79);fill-rule:nonzero;"/>
                    </g>
                </g>
                <g transform="matrix(0.238983,-0.971024,-0.971024,-0.238983,10.538,6.35388)">
                    <path d="M-1.158,-0.907C-0.199,-0.959 0.578,-0.469 0.579,0.19C0.578,0.848 -0.199,1.425 -1.158,1.478C-2.117,1.53 -2.894,1.04 -2.895,0.381C-2.894,-0.277 -2.117,-0.854 -1.158,-0.907" style="fill:rgb(159,204,84);fill-rule:nonzero;"/>
                </g>
                <g opacity="0.13">
                    <g transform="matrix(0.235762,-0.971811,-0.971811,-0.235762,10.7777,6.16149)">
                        <path d="M-2.145,-1.687C-0.379,-1.798 1.055,-0.899 1.055,0.32C1.055,1.539 -0.379,2.618 -2.145,2.728C-3.912,2.839 -5.346,1.94 -5.346,0.721C-5.346,-0.498 -3.912,-1.577 -2.145,-1.687" style="fill:rgb(217,255,0);fill-rule:nonzero;"/>
                    </g>
                </g>
                <g transform="matrix(1,0,0,1,28.4608,8.4515)">
                    <path d="M0,-0.003C-0.002,-0.014 -0.004,-0.025 -0.006,-0.036C-0.014,-0.081 -0.031,-0.126 -0.046,-0.169C-0.053,-0.197 -0.065,-0.221 -0.084,-0.242C-0.1,-0.266 -0.12,-0.284 -0.145,-0.298C-0.17,-0.314 -0.196,-0.322 -0.225,-0.324C-0.253,-0.33 -0.282,-0.329 -0.311,-0.32C-0.363,-0.303 -0.413,-0.271 -0.439,-0.22C-0.446,-0.203 -0.454,-0.186 -0.461,-0.169C-0.471,-0.13 -0.471,-0.092 -0.461,-0.054C-0.443,-0.011 -0.43,0.034 -0.412,0.077C-0.404,0.098 -0.396,0.119 -0.388,0.14C-0.375,0.172 -0.374,0.179 -0.359,0.2C-0.356,0.203 -0.354,0.207 -0.351,0.211C-0.339,0.227 -0.328,0.247 -0.314,0.26C-0.302,0.272 -0.284,0.286 -0.268,0.294C-0.229,0.316 -0.175,0.327 -0.131,0.312C-0.117,0.307 -0.103,0.301 -0.089,0.294C-0.062,0.279 -0.042,0.257 -0.026,0.231C-0.011,0.21 -0.002,0.187 0.001,0.162C0.006,0.135 0.012,0.107 0.012,0.08C0.011,0.055 0.004,0.023 0,-0.003" style="fill:rgb(255,248,181);fill-rule:nonzero;"/>
                </g>
                <g transform="matrix(1,0,0,1,46.3559,6.2064)">
                    <path d="M0,0.151L0,0.143C-0.004,0.121 -0.007,0.099 -0.011,0.078C-0.013,0.07 -0.016,0.062 -0.019,0.055C-0.032,0.018 -0.049,-0.016 -0.075,-0.047C-0.112,-0.093 -0.153,-0.138 -0.2,-0.176C-0.228,-0.201 -0.26,-0.218 -0.296,-0.229C-0.332,-0.245 -0.371,-0.252 -0.412,-0.251C-0.453,-0.252 -0.491,-0.245 -0.527,-0.229C-0.564,-0.218 -0.596,-0.201 -0.623,-0.176C-0.639,-0.159 -0.654,-0.142 -0.67,-0.124C-0.697,-0.084 -0.71,-0.042 -0.71,0.005C-0.707,0.027 -0.704,0.05 -0.7,0.073C-0.686,0.116 -0.66,0.153 -0.623,0.186C-0.599,0.204 -0.577,0.225 -0.556,0.246C-0.536,0.269 -0.515,0.29 -0.494,0.312L-0.54,0.263C-0.522,0.282 -0.506,0.304 -0.485,0.321C-0.484,0.322 -0.482,0.323 -0.48,0.325C-0.461,0.337 -0.442,0.35 -0.423,0.362C-0.401,0.372 -0.378,0.38 -0.354,0.387L-0.28,0.396C-0.242,0.397 -0.206,0.39 -0.172,0.375C-0.149,0.37 -0.128,0.359 -0.111,0.345C-0.081,0.328 -0.057,0.305 -0.039,0.277L-0.038,0.276C-0.018,0.249 -0.006,0.219 -0.005,0.187C-0.002,0.17 0,0.164 0,0.151Z" style="fill:rgb(255,217,204);fill-rule:nonzero;"/>
                </g>
                <g transform="matrix(1,0,0,1,11.019,6.498)">
                    <path d="M0,0.098C-0.014,0 -0.047,-0.094 -0.091,-0.185C-0.108,-0.221 -0.164,-0.253 -0.207,-0.262C-0.253,-0.274 -0.317,-0.269 -0.361,-0.246C-0.404,-0.223 -0.443,-0.189 -0.457,-0.146C-0.46,-0.132 -0.463,-0.118 -0.466,-0.103C-0.468,-0.072 -0.46,-0.044 -0.443,-0.017C-0.441,-0.014 -0.44,-0.011 -0.438,-0.007C-0.417,0.04 -0.403,0.091 -0.393,0.141C-0.403,0.165 -0.405,0.188 -0.4,0.212C-0.4,0.237 -0.393,0.26 -0.377,0.281C-0.367,0.293 -0.356,0.306 -0.345,0.318C-0.312,0.349 -0.249,0.372 -0.198,0.371C-0.179,0.369 -0.16,0.367 -0.141,0.365C-0.111,0.36 -0.086,0.348 -0.064,0.332C-0.04,0.32 -0.021,0.303 -0.006,0.282C0.001,0.267 0.009,0.253 0.017,0.239C0.027,0.216 0.029,0.192 0.024,0.168C0.024,0.144 0.017,0.121 0.002,0.099C0.001,0.099 0,0.099 0,0.098" style="fill:rgb(248,255,219);fill-rule:nonzero;"/>
                </g>
            </g>
        </g>
    </g>
</svg>
