<?xml version="1.0" encoding="UTF-8" standalone="no"?>
<!DOCTYPE svg PUBLIC "-//W3C//DTD SVG 1.1//EN" "http://www.w3.org/Graphics/SVG/1.1/DTD/svg11.dtd">
<svg width="100%" height="100%" viewBox="0 0 2513 491" version="1.1" xmlns="http://www.w3.org/2000/svg" xmlns:xlink="http://www.w3.org/1999/xlink" xml:space="preserve" xmlns:serif="http://www.serif.com/" style="fill-rule:evenodd;clip-rule:evenodd;stroke-linejoin:round;stroke-miterlimit:1.41421;">
    <rect id="Artboard1" x="0" y="0" width="2512.54" height="490.146" style="fill:none;"/>
    <clipPath id="_clip1">
        <rect id="Artboard11" serif:id="Artboard1" x="0" y="0" width="2512.54" height="490.146"/>
    </clipPath>
    <g clip-path="url(#_clip1)">
        <g transform="matrix(1,0,0,1,561.489,168.789)">
            <path d="M0,310.732L0,158.199L89.618,158.199C104.395,158.199 117.72,159.934 129.593,163.394C141.462,166.858 151.525,171.817 159.78,178.27C168.034,184.726 174.401,192.518 178.882,201.645C183.363,210.776 185.604,221.088 185.604,232.577C185.604,258.078 177.309,277.48 160.723,290.78C144.133,304.084 120.354,310.732 89.382,310.732L0,310.732ZM76.883,-0.236C108.798,-0.236 132.5,6.14 147.988,18.89C163.472,31.64 171.218,49.902 171.218,73.67C171.218,82.328 169.526,91.105 166.147,99.997C162.765,108.892 157.34,116.92 149.875,124.081C142.405,131.245 132.813,137.067 121.103,141.553C109.388,146.04 95.197,148.283 78.534,148.283L0,148.283L0,-0.236L76.883,-0.236ZM-12.971,-10.625L-12.971,321.357L89.382,321.357C106.676,321.357 122.083,319.39 135.606,315.454C149.126,311.521 160.564,305.773 169.921,298.217C179.273,290.662 186.389,281.417 191.264,270.473C196.135,259.535 198.575,246.98 198.575,232.813C198.575,221.324 196.607,210.894 192.679,201.527C188.747,192.164 183.046,184.054 175.581,177.207C168.111,170.359 159.032,164.774 148.342,160.442C137.648,156.115 125.543,153.241 112.023,151.824C122.871,149.78 132.736,146.239 141.62,141.199C150.501,136.163 158.048,130.102 164.261,123.018C170.47,115.935 175.304,108.106 178.765,99.524C182.221,90.946 183.953,82.015 183.953,72.725C183.953,46.125 175.146,25.583 157.539,11.098C139.929,-3.383 113.043,-10.625 76.883,-10.625L-12.971,-10.625ZM320.501,310.259L320.501,158.436L474.503,158.436L474.503,147.574L320.501,147.574L320.501,0.473L503.275,0.473L503.275,-10.625L307.53,-10.625L307.53,321.357L503.275,321.357L503.747,310.259L320.501,310.259ZM845.473,-10.625L845.473,290.898C845.473,292.16 845.51,293.495 845.591,294.912C845.668,296.329 845.786,297.746 845.944,299.162L619.305,-7.555C618.361,-8.813 617.496,-9.64 616.71,-10.035C615.922,-10.426 614.901,-10.625 613.645,-10.625L607.749,-10.625L607.749,321.357L619.069,321.357L619.069,19.126C619.069,17.868 619.028,16.492 618.951,14.994C618.87,13.5 618.752,12.043 618.597,10.626L846.18,318.524C847.595,320.413 849.323,321.357 851.368,321.357L856.793,321.357L856.793,-10.625L845.473,-10.625ZM1000.89,310.023L1000.89,-10.625L987.915,-10.625L987.915,321.357L1165.27,321.357L1165.27,310.023L1000.89,310.023Z" style="fill:rgb(60,60,59);fill-rule:nonzero;"/>
        </g>
        <g transform="matrix(1,0,0,1,1825.33,169.262)">
            <path d="M0,309.786L0,157.962L154.002,157.962L154.002,147.101L0,147.101L0,-0.001L182.774,-0.001L182.774,-11.098L-12.971,-11.098L-12.971,320.884L182.774,320.884L183.245,309.786L0,309.786Z" style="fill:rgb(60,60,59);fill-rule:nonzero;"/>
        </g>
        <g transform="matrix(1,0,0,1,2369.47,490.146)">
            <path d="M0,-333.252L-12.291,-333.252L-135.7,-137.337L-259.109,-333.252L-271.893,-333.252L-271.893,0L-260.584,0L-260.584,-314.546L-140.125,-123.062L-131.767,-123.062L-11.309,-314.546L-10.816,-314.546L-11.309,-178.193L-11.309,0L0,0L0,-333.252Z" style="fill:rgb(60,60,59);fill-rule:nonzero;"/>
        </g>
        <g transform="matrix(1,0,0,1,-185.444,-118.293)">
            <rect x="2686.18" y="275.187" width="11.8" height="333.252" style="fill:rgb(60,60,59);"/>
        </g>
        <g transform="matrix(1,0,0,1,293.588,93.3344)">
            <path d="M0,0.254L-86.59,86.59L-86.59,-86.336L0,0.254Z" style="fill:rgb(123,184,42);fill-rule:nonzero;"/>
        </g>
        <g transform="matrix(1,0,0,1,5.3311,150.043)">
            <path d="M0,44.625C62.556,92.307 125.112,139.989 187.667,187.67C187.667,77.432 187.668,-32.807 187.668,-143.045C125.112,-80.488 62.556,-17.932 0,44.625" style="fill:rgb(123,184,42);fill-rule:nonzero;"/>
        </g>
        <g transform="matrix(1,0,0,1,0,488.889)">
            <path d="M0,-280.678L0,0L192.999,0L192.999,-133.573C128.666,-182.608 64.333,-231.643 0,-280.678" style="fill:rgb(123,184,42);fill-rule:nonzero;"/>
        </g>
        <g transform="matrix(1,0,0,1,303.489,488.889)">
            <path d="M0,-385.4C-32.164,-353.329 -64.327,-321.257 -96.49,-289.185L-96.49,0L96.511,0L96.511,-289.185C64.341,-321.257 32.17,-353.329 0,-385.4" style="fill:rgb(160,205,84);fill-rule:nonzero;"/>
        </g>
    </g>
</svg>
