<?xml version="1.0" encoding="UTF-8" standalone="no"?>
<!DOCTYPE svg PUBLIC "-//W3C//DTD SVG 1.1//EN" "http://www.w3.org/Graphics/SVG/1.1/DTD/svg11.dtd">
<svg width="100%" height="100%" viewBox="0 0 613 146" version="1.1" xmlns="http://www.w3.org/2000/svg" xmlns:xlink="http://www.w3.org/1999/xlink" xml:space="preserve" xmlns:serif="http://www.serif.com/" style="fill-rule:evenodd;clip-rule:evenodd;stroke-linejoin:round;stroke-miterlimit:1.41421;">
    <g id="Artboard1" transform="matrix(0.864598,0,0,0.357843,-36.3131,-65.1275)">
        <rect x="42" y="182" width="709" height="408" style="fill:none;"/>
        <clipPath id="_clip1">
            <rect x="42" y="182" width="709" height="408"/>
        </clipPath>
        <g clip-path="url(#_clip1)">
            <g transform="matrix(1.45145,0,0,3.5069,-227.018,-825.955)">
                <text x="176px" y="400px" style="font-family:'FuturaRound-Demi', 'Futura Round Demi';font-weight:600;font-size:147.981px;fill:rgb(55,59,47);">Benlemi</text>
            </g>
            <g transform="matrix(0.0875423,0.0350365,-0.0124624,0.181779,38.8444,298.467)">
                <path d="M950.627,204.323C856.026,255.723 747.526,262.023 641.227,274.223C589.328,280.223 537.927,287.622 489.026,302.423C478.426,305.622 467.827,309.223 457.426,313.223C426.526,325.023 396.726,340.523 368.626,361.223C342.226,380.622 320.626,403.623 302.426,428.923C273.426,469.322 253.226,515.822 236.626,564.123C206.326,651.822 192.426,745.022 195.126,837.723C196.226,875.323 196.826,914.423 206.126,951.123C208.226,959.223 210.226,969.522 216.526,975.522C224.726,983.422 239.426,975.322 236.126,963.822C212.326,882.722 227.126,787.923 260.026,710.423C353.601,549.079 555.193,471.294 644.393,438.995C668.093,430.395 692.294,422.895 716.893,415.795C717.393,415.596 717.893,415.596 718.393,415.596C723.293,415.596 740.382,435.279 735.282,437.58C706.997,450.357 637.897,480.306 637.222,480.659C503.022,550.659 257.925,795.724 308.225,795.724C312.326,795.724 317.125,794.624 322.625,792.324C400.225,760.224 492.425,759.925 577.725,744.125C607.725,738.625 636.925,731.125 664.326,719.725C773.126,674.325 850.926,585.525 897.225,478.725C931.725,399.025 945.125,304.925 971.225,222.124C974.625,211.524 967.125,202.425 957.925,202.425C955.627,202.323 953.127,202.924 950.627,204.323Z" style="fill:rgb(141,198,63);fill-rule:nonzero;"/>
                <path d="M947.703,127.272L950.196,126.958L952.715,126.736L955.259,126.606L957.831,126.572L959.064,126.603L960.084,126.619L962.238,126.719L964.382,126.884L966.517,127.115L968.644,127.412L970.765,127.773L972.867,128.198L974.951,128.685L977.034,129.239L979.1,129.855L981.143,130.532L983.18,131.275L985.192,132.078L987.185,132.942L989.171,133.873L991.128,134.863L993.068,135.916L994.994,137.035L996.895,138.216L998.768,139.456L1000.62,140.76L1002.46,142.135L1004.27,143.574L1006.05,145.075L1007.8,146.643L1009.53,148.276L1011.22,149.976L1012.89,151.748L1014.52,153.585L1016.12,155.487L1017.68,157.464L1019.2,159.507L1020.68,161.621L1022.12,163.801L1023.51,166.055L1024.85,168.375L1026.13,170.752L1027.37,173.208L1028.54,175.734L1029.66,178.312L1030.71,180.957L1031.69,183.66L1032.6,186.414L1033.44,189.226L1034.2,192.084L1034.88,194.993L1035.48,197.939L1035.99,200.917L1036.42,203.931L1036.76,206.967L1037.01,210.018L1037.17,213.086L1037.24,216.157L1037.22,219.235L1037.1,222.303L1036.9,225.346L1036.61,228.386L1036.23,231.398L1035.77,234.373L1035.23,237.325L1034.6,240.222L1033.9,243.08L1033.13,245.894L1032.56,247.77L1031.33,251.69L1030.27,255.176L1029.21,258.695L1028.16,262.249L1027.12,265.835L1026.08,269.452L1025.05,273.102L1024.03,276.782L1023.02,280.493L1022.01,284.234L1021.01,288.003L1020.01,291.8L1019.01,295.627L1018.03,299.436L1016.04,307.271L1014.07,315.154L1012.1,323.133L1010.13,331.202L1008.14,339.366L1004.12,355.885L1002.06,364.275L999.965,372.719L997.831,381.224L995.66,389.731L994.535,394.075L993.407,398.388L992.262,402.712L991.101,407.047L989.921,411.392L988.723,415.748L987.504,420.114L986.265,424.487L985.003,428.869L983.719,433.259L982.411,437.655L981.077,442.058L979.718,446.467L978.331,450.882L976.916,455.301L975.471,459.723L973.996,464.149L972.49,468.578L970.95,473.007L969.377,477.439L967.769,481.871L966.124,486.303L964.442,490.733L962.722,495.162L960.961,499.588L959.16,504.01L957.317,508.429L955.455,512.782L954.165,515.739L952.903,518.593L951.627,521.441L950.339,524.279L949.036,527.112L947.719,529.938L946.391,532.755L945.047,535.566L943.691,538.369L942.321,541.163L940.937,543.951L939.539,546.732L938.128,549.503L936.704,552.267L935.266,555.023L933.814,557.772L932.349,560.511L930.871,563.241L929.378,565.964L927.872,568.679L926.352,571.385L924.82,574.081L923.273,576.769L921.712,579.451L920.138,582.12L918.551,584.781L916.949,587.434L915.335,590.076L913.706,592.71L912.063,595.335L910.408,597.95L908.739,600.554L907.056,603.15L905.359,605.736L903.649,608.312L901.925,610.877L900.188,613.432L898.436,615.979L896.671,618.515L894.893,621.039L893.102,623.553L891.297,626.056L889.477,628.55L887.644,631.033L885.798,633.504L883.938,635.965L882.064,638.415L880.176,640.853L878.276,643.28L876.361,645.697L874.433,648.101L872.492,650.493L870.536,652.876L868.568,655.245L866.586,657.602L864.59,659.948L862.58,662.282L860.557,664.604L858.521,666.914L856.471,669.21L854.407,671.495L852.33,673.768L850.24,676.026L848.136,678.273L846.018,680.508L843.888,682.729L841.744,684.937L839.586,687.132L837.415,689.313L835.23,691.482L833.032,693.637L830.821,695.778L828.596,697.906L826.358,700.021L824.106,702.121L821.843,704.206L819.565,706.279L817.273,708.337L814.969,710.381L812.651,712.411L810.321,714.425L807.976,716.427L805.619,718.412L803.249,720.383L800.865,722.34L798.469,724.282L796.059,726.208L793.636,728.12L791.2,730.016L788.751,731.897L786.289,733.763L783.815,735.613L781.327,737.447L778.826,739.266L776.313,741.068L773.787,742.855L771.248,744.626L768.695,746.382L766.13,748.121L763.553,749.843L760.962,751.549L758.359,753.239L755.744,754.912L753.116,756.569L750.474,758.209L747.82,759.832L745.155,761.438L742.477,763.027L739.785,764.599L737.081,766.154L734.366,767.691L731.638,769.212L728.896,770.715L726.143,772.2L723.379,773.667L720.601,775.118L717.811,776.55L715.01,777.964L712.194,779.361L709.368,780.739L706.53,782.099L703.68,783.441L700.817,784.765L697.943,786.07L695.056,787.357L692.158,788.626L689.249,789.875L686.268,791.131L683.203,792.39L680.135,793.619L677.064,794.817L673.989,795.987L670.913,797.128L667.836,798.24L664.758,799.324L661.678,800.381L658.597,801.412L655.515,802.417L652.432,803.396L649.349,804.35L646.265,805.281L643.182,806.187L640.099,807.07L637.016,807.93L633.933,808.769L630.851,809.585L627.771,810.381L624.691,811.155L621.612,811.91L618.535,812.646L615.459,813.362L612.385,814.059L609.313,814.739L606.241,815.402L603.174,816.047L600.108,816.675L597.044,817.288L593.984,817.884L590.925,818.466L587.898,819.028L583.647,819.803L579.327,820.565L575.015,821.302L570.71,822.015L566.413,822.706L562.126,823.375L557.847,824.026L553.577,824.657L549.317,825.272L545.067,825.871L540.828,826.455L536.57,827.03L528.187,828.131L519.814,829.199L511.495,830.237L503.239,831.252L486.882,833.262L478.821,834.268L470.823,835.289L462.864,836.337L458.965,836.864L455.055,837.404L451.169,837.953L447.303,838.512L443.459,839.083L439.64,839.665L435.844,840.26L432.072,840.868L428.325,841.491L424.604,842.129L420.909,842.784L417.241,843.455L413.601,844.143L409.988,844.85L406.403,845.576L402.849,846.322L399.323,847.088L395.828,847.875L392.364,848.683L388.931,849.514L385.531,850.368L382.163,851.245L378.828,852.146L375.526,853.072L372.259,854.023L369.027,854.999L365.829,856.001L362.667,857.029L359.462,858.111L357.99,858.622L356.447,859.167L354.917,859.718L353.395,860.277L351.881,860.842L350.378,861.414L348.883,861.994L347.399,862.581L345.923,863.175L344.23,863.868L342.66,864.509L340.626,865.295L338.564,866.048L336.475,866.764L334.353,867.442L332.194,868.082L329.998,868.68L327.765,869.231L325.487,869.736L323.166,870.188L320.802,870.585L318.387,870.922L315.922,871.193L313.403,871.395L310.836,871.521L308.147,871.566L305.398,871.512L302.422,871.331L299.261,870.994L295.894,870.467L292.314,869.708L289.747,869.007L289.741,869.184L289.697,870.737L289.661,872.287L289.633,873.832L289.614,875.373L289.605,876.91L289.603,878.443L289.611,879.972L289.627,881.496L289.652,883.015L289.686,884.53L289.728,886.041L289.78,887.546L289.84,889.047L289.908,890.543L289.986,892.033L290.072,893.519L290.167,895L290.271,896.475L290.383,897.945L290.504,899.409L290.634,900.868L290.773,902.322L290.92,903.77L291.076,905.212L291.241,906.649L291.415,908.079L291.597,909.505L291.788,910.924L291.987,912.337L292.196,913.744L292.413,915.146L292.638,916.541L292.873,917.93L293.116,919.313L293.367,920.691L293.628,922.061L293.897,923.426L294.174,924.785L294.461,926.137L294.756,927.483L295.06,928.823L295.372,930.156L295.693,931.484L296.023,932.805L296.361,934.119L296.708,935.428L297.064,936.73L297.428,938.026L298.17,940.588L299.042,943.895L299.961,948.107L300.705,952.426L301.263,956.831L301.625,961.297L301.787,965.801L301.743,970.318L301.495,974.817L301.044,979.275L300.397,983.667L299.564,987.966L298.555,992.16L297.38,996.232L296.056,1000.16L294.599,1003.93L293.017,1007.55L291.33,1011L289.55,1014.29L287.686,1017.42L285.753,1020.38L283.759,1023.18L281.715,1025.82L279.627,1028.31L277.499,1030.66L275.347,1032.86L273.158,1034.94L270.946,1036.89L268.721,1038.71L266.47,1040.42L264.198,1042.01L261.912,1043.5L259.611,1044.88L257.291,1046.17L254.944,1047.36L252.582,1048.46L250.209,1049.46L247.802,1050.38L245.381,1051.2L242.939,1051.93L240.459,1052.58L237.962,1053.14L235.423,1053.6L232.864,1053.97L230.297,1054.25L227.673,1054.43L225.017,1054.51L222.344,1054.49L219.627,1054.35L216.89,1054.11L214.122,1053.75L211.32,1053.26L208.504,1052.64L205.67,1051.9L202.814,1051.02L199.945,1049.99L197.076,1048.82L194.207,1047.5L191.351,1046.03L188.512,1044.4L185.701,1042.61L182.93,1040.67L180.21,1038.58L177.545,1036.33L175.107,1034.09L172.575,1031.57L170.059,1028.85L167.708,1026.09L165.516,1023.31L163.481,1020.53L161.599,1017.76L159.866,1015.02L158.273,1012.33L156.811,1009.69L155.475,1007.11L154.252,1004.59L153.136,1002.16L152.119,999.801L151.192,997.529L150.348,995.343L149.579,993.246L148.878,991.237L148.241,989.323L147.662,987.501L147.077,985.584L146.231,982.653L145.477,979.875L144.862,977.505L144.393,975.645L143.572,972.401L143.032,970.237L142.469,967.907L141.925,965.583L141.399,963.265L140.892,960.952L140.402,958.646L139.93,956.346L139.475,954.053L139.036,951.767L138.614,949.488L138.207,947.216L137.816,944.952L137.439,942.695L137.077,940.446L136.73,938.205L136.379,935.859L135.768,931.537L135.191,927.131L134.662,922.759L134.178,918.423L133.736,914.124L133.333,909.862L132.966,905.638L132.633,901.453L132.331,897.308L132.058,893.202L131.812,889.138L131.589,885.114L131.388,881.133L131.206,877.194L131.041,873.298L130.889,869.393L130.628,861.899L130.4,854.513L129.988,840.151L129.864,835.453L129.764,830.613L129.69,825.773L129.644,820.933L129.625,816.092L129.633,811.252L129.668,806.412L129.73,801.572L129.819,796.733L129.935,791.894L130.078,787.056L130.248,782.219L130.445,777.384L130.669,772.549L130.92,767.716L131.198,762.885L131.503,758.055L131.835,753.227L132.194,748.401L132.58,743.578L132.993,738.757L133.433,733.938L133.9,729.122L134.394,724.309L134.914,719.498L135.462,714.691L136.036,709.887L136.638,705.087L137.266,700.29L137.921,695.496L138.604,690.707L139.313,685.921L140.048,681.14L140.811,676.363L141.601,671.591L142.417,666.823L143.261,662.06L144.131,657.302L145.028,652.549L145.952,647.802L146.902,643.059L147.88,638.323L148.884,633.592L149.916,628.867L150.973,624.148L152.058,619.435L153.17,614.728L154.308,610.028L155.473,605.335L156.665,600.648L157.884,595.969L159.129,591.296L160.401,586.63L161.7,581.973L163.026,577.323L164.378,572.68L165.757,568.045L167.163,563.419L168.595,558.8L170.054,554.191L171.54,549.589L173.052,544.996L174.592,540.412L176.13,535.918L177.818,531.045L179.552,526.12L181.319,521.19L183.119,516.254L184.953,511.314L186.823,506.371L188.73,501.425L190.676,496.478L192.662,491.531L194.689,486.584L196.758,481.639L198.871,476.696L201.03,471.757L203.199,466.903L204.355,464.36L205.487,461.897L206.632,459.436L207.789,456.976L208.959,454.519L210.142,452.064L211.338,449.611L212.547,447.161L213.77,444.712L215.005,442.268L216.254,439.828L217.518,437.388L218.796,434.952L220.087,432.521L221.393,430.094L222.713,427.67L224.049,425.25L225.398,422.835L226.763,420.424L228.144,418.017L229.539,415.615L230.95,413.219L232.376,410.827L233.818,408.442L235.276,406.061L236.751,403.686L238.24,401.319L239.747,398.956L241.271,396.6L242.811,394.25L244.367,391.909L245.941,389.575L247.532,387.246L249.14,384.926L250.765,382.613L252.446,380.255L254.529,377.385L256.634,374.534L258.768,371.695L260.93,368.869L263.121,366.057L265.34,363.258L267.589,360.474L269.868,357.704L272.177,354.95L274.515,352.212L276.883,349.491L279.282,346.786L281.711,344.1L284.17,341.431L286.661,338.781L289.182,336.151L291.735,333.539L294.319,330.949L296.934,328.38L299.581,325.831L302.26,323.304L304.969,320.8L307.711,318.319L310.485,315.862L313.291,313.428L316.128,311.018L318.998,308.634L321.899,306.276L324.833,303.943L327.799,301.636L330.797,299.357L333.774,297.144L336.888,294.872L340.022,292.63L343.165,290.425L346.316,288.257L349.477,286.126L352.646,284.03L355.822,281.971L359.008,279.946L362.2,277.957L365.399,276.004L368.605,274.084L371.818,272.199L375.038,270.348L378.264,268.531L381.495,266.747L384.732,264.996L387.975,263.277L391.223,261.591L394.475,259.937L397.733,258.314L400.995,256.723L404.26,255.162L407.53,253.632L410.803,252.132L414.081,250.662L417.362,249.221L420.645,247.809L423.931,246.426L427.221,245.071L430.512,243.744L433.806,242.444L437.074,241.182L441.423,239.534L445.881,237.895L450.343,236.302L454.809,234.755L459.274,233.254L463.74,231.798L468.204,230.386L472.586,229.043L475.175,228.266L477.796,227.492L482.847,226.041L487.963,224.621L493.078,223.249L498.193,221.924L503.308,220.644L508.421,219.409L513.532,218.216L518.641,217.064L523.747,215.952L528.851,214.878L533.952,213.84L539.049,212.839L544.142,211.871L549.231,210.936L554.315,210.032L559.395,209.158L564.47,208.313L569.538,207.495L574.601,206.703L579.658,205.936L584.708,205.192L589.752,204.47L594.787,203.769L599.817,203.088L604.837,202.425L609.85,201.779L614.855,201.148L619.85,200.533L624.864,199.928L634.799,198.76L644.965,197.61L655.075,196.493L675.114,194.319L685.076,193.24L694.973,192.155L704.811,191.055L714.621,189.927L719.46,189.356L724.308,188.773L729.139,188.179L733.953,187.574L738.749,186.957L743.527,186.326L748.287,185.68L753.027,185.019L757.748,184.342L762.45,183.647L767.131,182.933L771.792,182.2L776.432,181.447L781.05,180.672L785.647,179.875L790.222,179.055L794.774,178.211L799.303,177.341L803.809,176.446L808.291,175.524L812.749,174.575L817.182,173.597L821.591,172.59L825.975,171.552L830.334,170.484L834.667,169.384L838.973,168.251L843.316,167.068L845.385,166.49L847.509,165.885L849.626,165.273L851.736,164.651L853.84,164.02L855.935,163.381L858.025,162.732L860.108,162.074L862.183,161.407L864.252,160.73L866.315,160.044L868.37,159.348L870.418,158.643L872.458,157.929L874.493,157.204L876.52,156.469L878.54,155.724L880.553,154.969L882.56,154.204L884.559,153.428L886.55,152.643L888.534,151.847L890.512,151.04L892.483,150.222L894.446,149.394L896.402,148.555L898.351,147.705L900.294,146.844L902.229,145.972L904.157,145.088L906.078,144.194L907.991,143.287L909.899,142.369L911.799,141.44L913.692,140.499L915.578,139.545L917.457,138.58L919.329,137.603L921.194,136.614L923.219,135.522L924.502,134.83L926.666,133.747L928.868,132.73L931.097,131.786L933.372,130.909L935.686,130.104L938.023,129.378L940.399,128.728L942.806,128.159L945.237,127.673L947.703,127.272ZM954.81,202.703L954.352,202.811L953.891,202.937L953.429,203.081L952.965,203.242L952.499,203.422L952.032,203.62L951.564,203.836L951.096,204.07L950.627,204.323L948.407,205.519L946.182,206.7L943.953,207.863L941.718,209.011L939.478,210.143L937.234,211.259L934.984,212.36L932.73,213.444L930.472,214.514L928.208,215.568L925.94,216.608L923.667,217.632L921.39,218.642L919.108,219.637L916.822,220.617L914.532,221.584L912.237,222.536L909.937,223.474L907.634,224.398L905.326,225.308L903.014,226.205L900.698,227.088L898.378,227.958L896.054,228.815L893.726,229.659L891.394,230.49L889.058,231.308L886.718,232.114L884.375,232.907L882.027,233.688L879.676,234.457L877.322,235.214L874.963,235.959L872.602,236.692L870.236,237.414L867.867,238.124L865.495,238.823L863.119,239.511L860.74,240.188L858.358,240.854L853.584,242.154L848.797,243.413L843.997,244.632L839.186,245.811L834.364,246.952L829.53,248.056L824.685,249.125L819.83,250.159L814.965,251.16L810.091,252.128L805.207,253.065L800.314,253.973L795.412,254.852L790.503,255.703L785.585,256.528L780.66,257.328L775.728,258.103L770.789,258.856L765.844,259.587L760.893,260.298L755.936,260.989L750.974,261.662L746.007,262.318L741.036,262.958L736.06,263.583L731.081,264.195L726.098,264.794L721.112,265.382L711.133,266.53L701.146,267.647L691.154,268.742L681.161,269.825L661.18,271.992L651.198,273.095L641.227,274.223L631.502,275.366L626.645,275.952L621.792,276.55L616.943,277.161L612.1,277.785L607.261,278.424L602.427,279.079L597.6,279.751L592.779,280.441L587.964,281.15L583.156,281.88L578.356,282.631L573.563,283.404L568.779,284.201L564.002,285.023L559.235,285.87L554.476,286.744L549.728,287.647L544.989,288.578L540.26,289.54L535.542,290.532L530.835,291.558L526.139,292.616L521.455,293.71L516.783,294.839L512.124,296.004L507.477,297.208L502.844,298.45L498.224,299.733L493.618,301.057L491.32,301.735L489.026,302.423L485.051,303.641L481.079,304.898L477.112,306.191L473.151,307.523L469.2,308.891L465.261,310.298L461.335,311.742L457.426,313.223L454.532,314.34L451.645,315.479L448.765,316.641L445.891,317.824L443.024,319.031L440.165,320.261L437.312,321.514L434.467,322.79L431.629,324.091L428.798,325.415L425.975,326.764L423.159,328.138L420.351,329.537L417.552,330.961L414.76,332.41L411.976,333.886L409.2,335.387L406.433,336.915L403.674,338.469L400.924,340.05L398.182,341.659L395.449,343.294L392.725,344.958L390.01,346.65L387.304,348.369L384.608,350.118L381.92,351.895L379.242,353.701L376.573,355.537L373.915,357.402L371.265,359.298L368.626,361.223L366.165,363.052L363.732,364.902L361.326,366.773L358.948,368.664L356.597,370.575L354.273,372.506L351.975,374.457L349.704,376.427L347.459,378.417L345.24,380.425L343.046,382.452L340.877,384.498L338.734,386.562L336.615,388.643L334.521,390.743L332.451,392.86L330.405,394.995L328.383,397.146L326.385,399.314L324.409,401.499L322.457,403.7L320.527,405.918L318.62,408.151L316.735,410.399L314.872,412.664L313.031,414.943L311.212,417.237L309.413,419.546L307.636,421.869L305.879,424.207L304.142,426.558L302.426,428.923L301.073,430.821L299.733,432.728L298.405,434.644L297.09,436.568L295.788,438.501L294.497,440.443L293.219,442.392L291.953,444.35L290.699,446.316L289.457,448.29L288.226,450.273L287.007,452.263L285.8,454.26L284.604,456.266L283.419,458.279L282.245,460.299L281.082,462.327L279.93,464.362L278.789,466.404L277.658,468.453L276.538,470.509L275.428,472.573L274.329,474.642L273.239,476.719L272.16,478.802L271.091,480.892L270.031,482.988L268.981,485.09L267.941,487.198L266.91,489.313L265.888,491.433L264.876,493.56L263.873,495.692L262.878,497.83L261.893,499.973L260.916,502.122L258.988,506.436L257.094,510.771L255.232,515.126L253.402,519.5L251.602,523.892L249.832,528.302L248.091,532.729L246.377,537.172L244.691,541.63L243.03,546.103L241.394,550.589L239.782,555.089L238.193,559.6L236.626,564.123L235.218,568.238L233.833,572.361L232.473,576.491L231.137,580.63L229.825,584.775L228.537,588.928L227.273,593.089L226.033,597.256L224.817,601.431L223.625,605.612L222.457,609.8L221.313,613.994L220.194,618.195L219.098,622.402L218.027,626.616L216.979,630.835L215.956,635.06L214.957,639.291L213.982,643.527L213.031,647.769L212.104,652.017L211.201,656.269L210.322,660.526L209.468,664.789L208.637,669.056L207.831,673.328L207.049,677.604L206.291,681.884L205.557,686.169L204.848,690.458L204.162,694.751L203.501,699.047L202.864,703.347L202.251,707.651L201.662,711.958L201.098,716.269L200.557,720.582L200.041,724.899L199.549,729.218L199.081,733.54L198.637,737.865L198.218,742.192L197.823,746.521L197.452,750.853L197.105,755.186L196.783,759.522L196.484,763.859L196.21,768.197L195.961,772.538L195.735,776.879L195.534,781.222L195.357,785.566L195.204,789.91L195.075,794.256L194.971,798.602L194.891,802.948L194.836,807.295L194.804,811.643L194.797,815.99L194.814,820.337L194.856,824.684L194.922,829.031L195.012,833.377L195.126,837.723L195.533,851.886L195.753,859.005L196.001,866.143L196.14,869.717L196.292,873.293L196.457,876.871L196.638,880.45L196.836,884.029L197.053,887.608L197.291,891.185L197.551,894.761L197.835,898.333L198.145,901.903L198.482,905.468L198.849,909.029L199.246,912.584L199.675,916.133L200.139,919.675L200.638,923.209L200.902,924.973L201.175,926.735L201.459,928.495L201.752,930.252L202.055,932.007L202.369,933.759L202.693,935.509L203.028,937.256L203.375,939L203.732,940.741L204.101,942.479L204.482,944.215L204.875,945.947L205.279,947.675L205.696,949.401L206.126,951.123L206.917,954.251L207.326,955.868L207.751,957.509L208.2,959.163L208.678,960.821L208.931,961.648L209.193,962.473L209.466,963.294L209.751,964.11L210.048,964.92L210.358,965.723L210.682,966.517L211.021,967.301L211.375,968.074L211.745,968.836L212.133,969.584L212.538,970.317L212.963,971.035L213.407,971.736L213.871,972.419L214.356,973.083L214.864,973.727L215.394,974.348L215.948,974.947L216.526,975.522L216.915,975.881L217.313,976.216L217.719,976.529L218.134,976.819L218.555,977.087L218.983,977.332L219.418,977.556L219.858,977.759L220.303,977.941L220.752,978.101L221.206,978.241L221.663,978.361L222.122,978.461L222.584,978.541L223.047,978.602L223.512,978.644L223.977,978.667L224.442,978.671L224.907,978.657L225.37,978.625L225.832,978.576L226.291,978.509L226.748,978.425L227.201,978.324L227.651,978.207L228.095,978.073L228.535,977.924L228.969,977.758L229.397,977.578L229.818,977.382L230.232,977.172L230.638,976.947L231.036,976.708L231.425,976.455L231.804,976.188L232.173,975.908L232.531,975.615L232.878,975.309L233.214,974.991L233.537,974.661L233.847,974.318L234.143,973.964L234.426,973.599L234.694,973.223L234.947,972.836L235.184,972.438L235.405,972.03L235.609,971.613L235.795,971.185L235.964,970.749L236.114,970.303L236.245,969.849L236.357,969.386L236.448,968.916L236.518,968.437L236.568,967.951L236.595,967.457L236.6,966.956L236.582,966.449L236.54,965.935L236.474,965.415L236.383,964.89L236.268,964.359L236.126,963.822L235.575,961.919L235.039,960.011L234.516,958.097L234.007,956.18L233.512,954.257L233.031,952.33L232.564,950.399L232.111,948.463L231.671,946.523L231.245,944.578L230.832,942.63L230.433,940.677L230.047,938.72L229.675,936.76L229.316,934.796L228.97,932.828L228.638,930.856L228.318,928.881L228.012,926.903L227.719,924.921L227.438,922.936L227.171,920.948L226.916,918.957L226.674,916.963L226.445,914.966L226.229,912.966L226.025,910.963L225.834,908.958L225.655,906.95L225.489,904.94L225.335,902.928L225.193,900.913L225.064,898.896L224.947,896.877L224.842,894.856L224.749,892.833L224.668,890.808L224.599,888.781L224.542,886.753L224.496,884.723L224.463,882.692L224.441,880.66L224.431,878.626L224.433,876.591L224.446,874.554L224.471,872.517L224.507,870.479L224.554,868.44L224.613,866.4L224.683,864.36L224.764,862.319L224.857,860.277L224.96,858.235L225.075,856.193L225.2,854.15L225.337,852.108L225.484,850.065L225.642,848.023L225.811,845.98L225.99,843.938L226.18,841.896L226.381,839.854L226.592,837.813L226.813,835.772L227.045,833.733L227.288,831.693L227.54,829.655L227.803,827.618L228.076,825.581L228.359,823.546L228.652,821.512L228.955,819.479L229.268,817.448L229.59,815.418L229.923,813.39L230.265,811.363L230.979,807.315L231.73,803.274L232.52,799.241L233.347,795.218L234.211,791.205L235.111,787.201L236.047,783.209L237.018,779.229L238.024,775.262L239.065,771.307L240.14,767.367L241.248,763.441L242.39,759.531L243.564,755.637L244.77,751.76L246.008,747.9L247.277,744.058L248.577,740.236L249.907,736.433L251.267,732.65L252.656,728.889L254.074,725.149L255.521,721.432L256.995,717.738L258.497,714.068L260.026,710.423L261.128,708.536L262.239,706.657L263.36,704.785L264.491,702.921L265.631,701.065L266.781,699.216L267.94,697.374L269.108,695.541L270.286,693.714L271.473,691.896L272.669,690.085L273.874,688.281L275.088,686.485L276.311,684.696L277.543,682.915L278.783,681.141L280.032,679.375L281.29,677.616L282.556,675.864L283.83,674.12L285.113,672.383L286.404,670.654L287.703,668.932L289.011,667.217L290.326,665.509L291.649,663.809L292.98,662.117L294.319,660.431L295.665,658.753L297.019,657.082L299.75,653.761L302.51,650.47L305.298,647.207L308.115,643.973L310.96,640.768L313.832,637.591L316.729,634.442L319.653,631.321L322.602,628.229L325.575,625.164L328.571,622.128L331.591,619.119L334.634,616.138L337.698,613.184L340.784,610.258L343.89,607.359L347.017,604.487L350.162,601.643L353.327,598.825L356.509,596.035L359.709,593.271L362.926,590.534L366.16,587.823L369.408,585.139L372.672,582.481L375.95,579.85L379.242,577.244L382.547,574.665L385.864,572.111L389.193,569.584L392.533,567.082L395.884,564.606L399.245,562.155L402.615,559.729L405.993,557.329L409.38,554.954L412.774,552.604L416.175,550.279L419.582,547.978L422.994,545.703L426.412,543.452L429.833,541.225L433.258,539.023L436.687,536.846L440.117,534.692L443.549,532.562L446.983,530.457L450.417,528.375L453.85,526.317L457.283,524.283L460.714,522.272L464.144,520.284L467.57,518.32L470.994,516.379L474.413,514.461L477.828,512.567L481.238,510.695L484.641,508.845L488.039,507.019L491.429,505.215L494.811,503.433L498.185,501.674L501.55,499.936L504.906,498.221L508.251,496.528L511.585,494.857L514.908,493.208L518.218,491.58L521.516,489.974L524.801,488.39L528.071,486.826L531.327,485.284L534.567,483.763L537.791,482.263L540.999,480.784L544.19,479.326L547.363,477.888L553.652,475.075L559.863,472.343L565.99,469.691L572.028,467.119L577.972,464.626L583.817,462.211L589.558,459.874L595.189,457.612L600.707,455.425L606.105,453.314L611.379,451.275L616.523,449.31L621.534,447.416L626.405,445.593L631.131,443.841L635.708,442.157L644.393,438.995L648.842,437.395L653.304,435.82L657.776,434.269L662.26,432.74L666.755,431.233L671.261,429.747L675.778,428.28L680.306,426.832L684.844,425.402L689.392,423.988L693.951,422.59L698.52,421.206L703.099,419.835L707.687,418.478L712.285,417.131L716.893,415.795L717.08,415.729L717.268,415.68L717.455,415.644L717.643,415.621L718.018,415.599L718.393,415.596L718.631,415.61L718.887,415.652L719.159,415.722L719.446,415.818L719.748,415.939L720.064,416.084L720.393,416.254L720.735,416.446L721.088,416.661L721.451,416.896L722.208,417.428L722.998,418.034L723.816,418.707L724.655,419.442L725.508,420.231L726.371,421.068L727.235,421.945L728.095,422.856L728.944,423.794L729.777,424.753L730.587,425.725L731.368,426.704L732.113,427.683L732.816,428.655L733.471,429.613L734.072,430.551L734.612,431.462L734.857,431.905L735.084,432.338L735.294,432.762L735.484,433.174L735.654,433.575L735.803,433.963L735.931,434.337L736.037,434.697L736.12,435.041L736.179,435.37L736.213,435.681L736.222,435.975L736.204,436.25L736.16,436.505L736.087,436.74L735.987,436.954L735.856,437.146L735.696,437.315L735.505,437.46L735.282,437.58L729.527,440.166L722.975,443.085L715.787,446.27L708.122,449.652L692.003,456.732L675.898,463.779L648.851,475.576L640.469,479.23L637.222,480.659L634.056,482.331L630.852,484.066L627.608,485.864L624.328,487.721L621.012,489.638L617.661,491.613L614.276,493.645L610.859,495.733L607.411,497.875L603.932,500.07L600.424,502.317L596.889,504.616L593.327,506.964L589.739,509.36L586.127,511.804L582.492,514.294L578.835,516.829L575.157,519.407L571.459,522.028L567.743,524.691L564.01,527.393L560.26,530.134L556.495,532.913L552.716,535.728L548.925,538.579L545.122,541.463L541.309,544.381L537.486,547.33L533.656,550.309L529.818,553.318L525.975,556.355L522.127,559.419L518.276,562.508L514.422,565.622L510.568,568.759L506.713,571.918L502.86,575.098L499.009,578.298L495.162,581.516L491.319,584.751L487.482,588.002L483.653,591.268L479.831,594.548L476.019,597.84L472.218,601.144L468.428,604.457L464.651,607.779L460.888,611.109L457.14,614.445L453.409,617.787L449.695,621.132L446,624.48L442.324,627.83L438.67,631.181L435.037,634.53L431.428,637.878L427.844,641.222L424.285,644.562L420.753,647.896L417.249,651.223L413.774,654.543L410.33,657.853L406.916,661.153L403.536,664.441L400.189,667.717L396.877,670.978L393.602,674.224L390.363,677.454L387.163,680.666L384.003,683.859L380.883,687.033L377.806,690.185L374.771,693.314L371.781,696.42L368.836,699.501L365.937,702.556L363.086,705.584L360.285,708.584L357.533,711.553L354.832,714.492L352.184,717.399L349.59,720.273L347.05,723.112L344.566,725.915L342.139,728.682L339.77,731.411L337.461,734.1L335.212,736.749L333.024,739.356L330.9,741.92L328.84,744.441L326.844,746.916L324.916,749.344L323.054,751.725L321.261,754.057L319.539,756.339L317.887,758.569L316.307,760.747L314.8,762.872L313.368,764.941L312.012,766.955L310.732,768.911L309.531,770.809L308.408,772.647L307.366,774.424L306.875,775.289L306.405,776.139L305.956,776.973L305.527,777.79L305.119,778.592L304.733,779.378L304.367,780.147L304.023,780.899L303.7,781.635L303.4,782.354L303.121,783.055L302.863,783.74L302.628,784.407L302.416,785.057L302.225,785.689L302.058,786.304L301.912,786.9L301.79,787.479L301.691,788.039L301.615,788.581L301.562,789.104L301.532,789.608L301.526,790.094L301.544,790.561L301.585,791.009L301.651,791.437L301.741,791.846L301.855,792.235L301.993,792.605L302.156,792.955L302.344,793.284L302.557,793.594L302.794,793.883L303.057,794.152L303.345,794.4L303.658,794.627L303.998,794.834L304.362,795.019L304.753,795.183L305.17,795.326L305.613,795.447L306.082,795.546L306.578,795.624L307.1,795.679L307.649,795.713L308.225,795.724L309.002,795.711L309.796,795.672L310.605,795.607L311.432,795.516L312.274,795.399L313.133,795.255L314.009,795.084L314.9,794.886L315.809,794.662L316.733,794.411L317.674,794.132L318.631,793.826L319.605,793.492L320.595,793.13L321.602,792.741L322.625,792.324L324.446,791.577L326.273,790.842L328.105,790.119L329.942,789.406L331.784,788.705L333.632,788.015L335.484,787.335L337.341,786.666L339.203,786.008L341.07,785.36L344.817,784.095L348.583,782.871L352.367,781.685L356.169,780.537L359.987,779.426L363.822,778.351L367.673,777.31L371.539,776.303L375.421,775.328L379.317,774.385L383.227,773.473L387.15,772.589L391.086,771.734L395.035,770.906L398.996,770.103L402.969,769.326L406.952,768.573L410.946,767.842L414.951,767.133L418.964,766.445L422.987,765.776L427.019,765.125L431.058,764.492L435.105,763.876L439.16,763.274L443.22,762.686L447.287,762.112L451.36,761.549L455.438,760.998L463.607,759.923L471.791,758.878L479.985,757.855L496.391,755.84L504.594,754.83L512.792,753.808L520.981,752.764L529.158,751.689L533.24,751.138L537.317,750.576L541.39,750.003L545.456,749.416L549.516,748.815L553.57,748.199L557.617,747.567L561.656,746.917L565.686,746.25L569.709,745.562L573.722,744.854L577.725,744.125L580.535,743.603L583.34,743.07L586.141,742.524L588.936,741.965L591.725,741.393L594.509,740.808L597.287,740.209L600.059,739.595L602.825,738.967L605.585,738.325L608.338,737.667L611.085,736.994L613.824,736.304L616.557,735.599L619.282,734.877L622,734.138L624.71,733.381L627.413,732.607L630.107,731.815L632.794,731.005L635.472,730.176L638.141,729.328L640.802,728.461L643.454,727.573L646.096,726.666L648.73,725.739L651.354,724.79L653.968,723.821L656.573,722.83L659.167,721.817L661.752,720.782L664.326,719.725L666.87,718.653L669.403,717.565L671.925,716.462L674.435,715.342L676.934,714.208L679.422,713.057L681.898,711.891L684.363,710.71L686.816,709.514L689.258,708.302L691.689,707.075L694.108,705.833L696.516,704.576L698.913,703.304L701.298,702.017L703.672,700.715L706.034,699.399L708.385,698.068L710.725,696.722L713.054,695.362L715.371,693.987L717.676,692.598L719.97,691.195L722.253,689.778L724.525,688.346L726.785,686.9L729.033,685.441L731.271,683.967L733.496,682.479L735.711,680.978L737.914,679.463L740.106,677.934L742.286,676.392L744.455,674.836L746.612,673.267L748.758,671.685L750.893,670.089L753.016,668.48L755.128,666.858L757.229,665.223L759.318,663.575L761.395,661.914L763.462,660.24L765.516,658.553L767.56,656.854L769.592,655.142L771.612,653.417L773.621,651.68L775.619,649.931L777.605,648.169L779.58,646.395L781.544,644.609L783.496,642.81L785.436,641L787.366,639.178L789.283,637.343L791.19,635.497L793.084,633.64L794.968,631.77L796.84,629.889L798.7,627.996L800.549,626.092L802.387,624.177L804.213,622.25L806.028,620.312L807.831,618.363L809.623,616.402L811.404,614.431L813.173,612.449L814.93,610.456L816.676,608.452L818.411,606.437L820.134,604.412L821.846,602.376L823.546,600.329L825.235,598.272L826.912,596.205L828.578,594.128L830.233,592.04L831.876,589.942L833.507,587.834L835.127,585.716L836.736,583.588L838.333,581.45L839.918,579.302L841.492,577.145L843.055,574.978L844.606,572.801L846.146,570.615L847.674,568.42L849.191,566.215L850.696,564.001L852.19,561.778L853.672,559.545L855.143,557.304L856.602,555.053L858.05,552.794L859.486,550.525L860.911,548.248L862.324,545.963L863.726,543.668L865.117,541.365L866.495,539.054L867.863,536.734L869.219,534.406L870.563,532.07L871.896,529.725L873.217,527.372L874.527,525.011L875.825,522.643L877.112,520.266L878.387,517.882L879.651,515.489L880.903,513.09L882.144,510.682L883.373,508.267L884.591,505.844L885.797,503.415L886.992,500.977L888.175,498.533L889.347,496.081L890.507,493.622L891.655,491.157L892.792,488.684L893.918,486.204L895.032,483.718L896.134,481.225L897.225,478.725L898.827,474.979L900.399,471.212L901.941,467.425L903.455,463.619L904.941,459.794L906.4,455.951L907.832,452.09L909.239,448.213L910.622,444.319L911.98,440.409L913.316,436.484L914.629,432.544L915.92,428.591L917.19,424.624L918.441,420.644L919.672,416.652L920.884,412.648L922.079,408.633L923.257,404.607L924.419,400.572L925.565,396.527L926.696,392.474L927.814,388.412L928.918,384.343L930.011,380.267L931.091,376.184L932.161,372.096L933.221,368.002L935.313,359.802L937.375,351.587L939.412,343.364L941.431,335.136L945.438,318.687L947.439,310.474L949.445,302.276L951.465,294.097L953.503,285.942L955.566,277.815L956.609,273.764L957.66,269.722L958.721,265.689L959.792,261.666L960.874,257.655L961.967,253.654L963.072,249.665L964.191,245.689L965.324,241.725L966.472,237.775L967.635,233.84L968.814,229.919L970.011,226.013L971.225,222.124L971.376,221.628L971.512,221.135L971.632,220.644L971.737,220.156L971.827,219.671L971.901,219.189L971.961,218.71L972.007,218.234L972.038,217.762L972.056,217.294L972.059,216.83L972.049,216.37L972.025,215.914L971.988,215.463L971.938,215.016L971.875,214.574L971.8,214.137L971.712,213.705L971.612,213.279L971.5,212.858L971.376,212.443L971.241,212.033L971.094,211.63L970.937,211.233L970.768,210.842L970.589,210.458L970.399,210.08L970.199,209.71L969.989,209.346L969.769,208.99L969.539,208.641L969.3,208.3L969.052,207.966L968.794,207.64L968.528,207.323L968.253,207.014L967.97,206.713L967.679,206.421L967.38,206.137L967.073,205.863L966.758,205.598L966.436,205.342L966.107,205.096L965.771,204.859L965.429,204.632L965.079,204.415L964.724,204.209L964.362,204.012L963.995,203.827L963.622,203.652L963.244,203.488L962.86,203.335L962.471,203.193L962.078,203.062L961.68,202.944L961.277,202.837L960.871,202.742L960.46,202.659L960.046,202.588L959.628,202.53L959.207,202.484L958.782,202.451L958.355,202.432L957.925,202.425L957.492,202.414L957.054,202.42L956.612,202.442L956.167,202.482L955.718,202.538L955.265,202.612L954.81,202.703ZM977.683,273.313L977.689,273.31L978.035,273.124L977.683,273.313Z" style="fill:white;"/>
            </g>
        </g>
    </g>
</svg>
