<?xml version="1.0" encoding="UTF-8" standalone="no"?>
<!DOCTYPE svg PUBLIC "-//W3C//DTD SVG 1.1//EN" "http://www.w3.org/Graphics/SVG/1.1/DTD/svg11.dtd">
<svg width="100%" height="100%" viewBox="0 0 320 330" version="1.1" xmlns="http://www.w3.org/2000/svg" xmlns:xlink="http://www.w3.org/1999/xlink" xml:space="preserve" xmlns:serif="http://www.serif.com/" style="fill-rule:evenodd;clip-rule:evenodd;stroke-linejoin:round;stroke-miterlimit:1.41421;">
    <g transform="matrix(0.684802,0,0,0.684802,224.089,59.1234)">
        <path d="M0,0.254L-86.59,86.59L-86.59,-86.336L0,0.254Z" style="fill:rgb(123,184,42);fill-rule:nonzero;"/>
    </g>
    <g transform="matrix(0.684802,0,0,0.684802,26.6903,97.9575)">
        <path d="M0,44.625C62.556,92.307 125.112,139.989 187.667,187.67C187.667,77.432 187.668,-32.807 187.668,-143.045C125.112,-80.488 62.556,-17.932 0,44.625" style="fill:rgb(123,184,42);fill-rule:nonzero;"/>
    </g>
    <g transform="matrix(0.684802,0,0,0.684802,23.0396,330)">
        <path d="M0,-280.678L0,0L192.999,0L192.999,-133.573C128.666,-182.608 64.333,-231.643 0,-280.678" style="fill:rgb(123,184,42);fill-rule:nonzero;"/>
    </g>
    <g transform="matrix(0.684802,0,0,0.684802,230.869,330)">
        <path d="M0,-385.4C-32.164,-353.329 -64.327,-321.257 -96.49,-289.185L-96.49,0L96.511,0L96.511,-289.185C64.341,-321.257 32.17,-353.329 0,-385.4" style="fill:rgb(160,205,84);fill-rule:nonzero;"/>
    </g>
</svg>
