<svg clip-rule="evenodd" fill-rule="evenodd" stroke-linejoin="round" stroke-miterlimit="1.41421" viewBox="0 0 320 330" xmlns="http://www.w3.org/2000/svg"><g fill-rule="nonzero"><g fill="#7bb82a"><path d="m0 .254-86.59 86.336v-172.926z" transform="matrix(.684802 0 0 .684802 224.089 59.1234)"/><path d="m0 44.625c62.556 47.682 125.112 95.364 187.667 143.045 0-110.238.001-220.477.001-330.715-62.556 62.557-125.112 125.113-187.668 187.67" transform="matrix(.684802 0 0 .684802 26.6903 97.9575)"/><path d="m0-280.678v280.678h192.999v-133.573c-64.333-49.035-128.666-98.07-192.999-147.105" transform="matrix(.684802 0 0 .684802 23.0396 330)"/></g><path d="m0-385.4c-32.164 32.071-64.327 64.143-96.49 96.215v289.185h193.001v-289.185c-32.17-32.072-64.341-64.144-96.511-96.215" fill="#a0cd54" transform="matrix(.684802 0 0 .684802 230.869 330)"/></g></svg>